<svg width="72" height="72" viewBox="0 0 72 72" fill="none" xmlns="http://www.w3.org/2000/svg">
<circle cx="35.5193" cy="36.4506" r="35.5193" fill="#E9F6EE"/>
<g clip-path="url(#clip0_2_210)">
<path d="M53.0636 25.5654L55.0036 23.6257C55.3259 23.3032 55.4321 22.8228 55.2755 22.3947C55.119 21.9662 54.728 21.6677 54.2733 21.6293L50.6744 21.3256L50.3707 17.7267C50.3326 17.2723 50.0338 16.8813 49.6057 16.7248C49.1775 16.5679 48.6971 16.6741 48.3746 16.9967L46.4346 18.9364C43.2974 17.0129 39.7103 16 36 16C30.6579 16 25.6353 18.0804 21.8578 21.8578C18.0804 25.6353 16 30.6579 16 36C16 41.3421 18.0804 46.3647 21.8578 50.1422C25.6353 53.9196 30.6579 56 36 56C41.3421 56 46.3647 53.9196 50.1422 50.1422C53.9196 46.3647 56 41.3421 56 36C56 32.2897 54.9871 28.7029 53.0636 25.5654ZM48.4219 22.5088C48.4701 23.0782 48.9218 23.5299 49.4912 23.5781L51.5618 23.7527L48.7591 26.5554L45.7025 26.2975L45.4446 23.2409L48.2473 20.4382L48.4219 22.5088ZM39.9844 36C39.9844 38.197 38.197 39.9844 36 39.9844C33.803 39.9844 32.0156 38.197 32.0156 36C32.0156 33.803 33.803 32.0156 36 32.0156C36.6729 32.0156 37.3068 32.1838 37.8631 32.4795L35.1714 35.1714C34.7137 35.6289 34.7137 36.3708 35.1714 36.8286C35.4 37.0574 35.7 37.1719 36 37.1719C36.3 37.1719 36.6 37.0574 36.8286 36.8286L39.5205 34.1369C39.8162 34.6932 39.9844 35.3271 39.9844 36ZM39.5666 30.776C38.5504 30.0802 37.322 29.6719 36 29.6719C32.5106 29.6719 29.6719 32.5106 29.6719 36C29.6719 39.4894 32.5106 42.3281 36 42.3281C39.4894 42.3281 42.3281 39.4894 42.3281 36C42.3281 34.678 41.9198 33.4496 41.224 32.4334L44.5699 29.0875C46.0986 30.9789 47.0156 33.3843 47.0156 36C47.0156 42.0739 42.0739 47.0156 36 47.0156C29.9261 47.0156 24.9844 42.0739 24.9844 36C24.9844 29.9261 29.9261 24.9844 36 24.9844C38.6157 24.9844 41.0211 25.9014 42.9125 27.4301L39.5666 30.776ZM48.4847 48.4847C45.1501 51.8197 40.7162 53.6562 36 53.6562C31.2838 53.6562 26.8499 51.8197 23.5153 48.4847C20.1803 45.1501 18.3438 40.7162 18.3438 36C18.3438 31.2838 20.1803 26.8499 23.5153 23.5153C26.8499 20.1803 31.2838 18.3438 36 18.3438C39.0853 18.3438 42.0739 19.1363 44.7244 20.6466L43.4026 21.9683C43.189 22.1819 43.0673 22.4682 43.0596 22.767C43.0587 22.8097 43.0599 22.8524 43.0633 22.8954L43.2211 24.7653C41.1376 23.4213 38.6584 22.6406 36 22.6406C28.6337 22.6406 22.6406 28.6337 22.6406 36C22.6406 43.3663 28.6337 49.3594 36 49.3594C43.3663 49.3594 49.3594 43.3663 49.3594 36C49.3594 33.3416 48.5787 30.8624 47.2347 28.7789L49.1046 28.9367C49.1375 28.9391 49.1705 28.9407 49.2031 28.9407C49.2086 28.9407 49.2144 28.9401 49.2199 28.9398C49.2355 28.9398 49.2507 28.9385 49.2663 28.9376C49.2916 28.9361 49.3173 28.9346 49.3423 28.9315C49.3578 28.9294 49.3734 28.9269 49.389 28.9245C49.4137 28.9205 49.4381 28.916 49.4625 28.9105C49.4781 28.9068 49.4933 28.9028 49.5086 28.8989C49.5324 28.8925 49.5559 28.8851 49.5794 28.8772C49.5947 28.872 49.6096 28.8668 49.6246 28.861C49.6475 28.8522 49.67 28.8424 49.6926 28.8317C49.707 28.8253 49.7213 28.8189 49.7357 28.8116C49.7582 28.8 49.7802 28.7872 49.8019 28.7744C49.815 28.7664 49.8281 28.7591 49.8409 28.7512C49.8641 28.7359 49.8864 28.7194 49.9087 28.7026C49.9191 28.6947 49.9297 28.6877 49.9398 28.6794C49.9716 28.6538 50.0024 28.6266 50.0317 28.5974L51.3534 27.2756C52.8637 29.9261 53.6562 32.9147 53.6562 36C53.6562 40.7162 51.8197 45.1501 48.4847 48.4847Z" fill="#34D27B"/>
</g>
<defs>
<clipPath id="clip0_2_210">
<rect width="40" height="40" fill="white" transform="translate(16 16)"/>
</clipPath>
</defs>
</svg>
