<svg width="72" height="72" viewBox="0 0 72 72" fill="none" xmlns="http://www.w3.org/2000/svg">
<circle cx="35.5193" cy="36.4506" r="35.5193" fill="#7879F1" fill-opacity="0.06"/>
<g clip-path="url(#clip0_2_265)">
<path d="M51.8864 54.9312H16.1133C15.4984 54.9312 15 54.4328 15 53.818C15 53.2032 15.4984 52.7047 16.1133 52.7047H51.8864C52.5013 52.7047 52.9997 53.2032 52.9997 53.818C52.9997 54.4328 52.5013 54.9312 51.8864 54.9312Z" fill="#7879F1"/>
<path d="M22.8669 54.9313H18.4138C17.799 54.9313 17.3006 54.4329 17.3006 53.818V45.654C17.3006 44.6309 18.1329 43.7986 19.156 43.7986H22.1247C23.1478 43.7986 23.9802 44.6309 23.9802 45.654V53.818C23.9802 54.4329 23.4818 54.9313 22.8669 54.9313ZM19.5271 52.7048H21.7537V46.0251H19.5271V52.7048ZM22.1247 46.0251H22.1255H22.1247Z" fill="#7879F1"/>
<path d="M31.7731 54.9313H27.32C26.7052 54.9313 26.2068 54.4328 26.2068 53.818V42.9822C26.2068 41.9591 27.0391 41.1267 28.0622 41.1267H31.0309C32.054 41.1267 32.8864 41.9591 32.8864 42.9822V53.818C32.8864 54.4328 32.3879 54.9313 31.7731 54.9313ZM28.4333 52.7047H30.6598V43.3533H28.4333V52.7047ZM31.0309 43.3533H31.0317H31.0309Z" fill="#7879F1"/>
<path d="M40.6793 54.9313H36.2262C35.6114 54.9313 35.1129 54.4328 35.1129 53.818V38.9001C35.1129 37.877 35.9453 37.0447 36.9684 37.0447H39.9371C40.9602 37.0447 41.7926 37.877 41.7926 38.9001V53.818C41.7926 54.4328 41.2941 54.9313 40.6793 54.9313ZM37.3395 52.7047H39.566V39.2712H37.3395V52.7047ZM39.9371 39.2712H39.9379H39.9371Z" fill="#7879F1"/>
<path d="M49.5855 54.9313H45.1324C44.5176 54.9313 44.0191 54.4329 44.0191 53.8181V31.4784C44.0191 30.4553 44.8515 29.6229 45.8746 29.6229H48.8433C49.8664 29.6229 50.6988 30.4553 50.6988 31.4784V53.8181C50.6988 54.4329 50.2003 54.9313 49.5855 54.9313ZM46.2457 52.7048H48.4722V31.8495H46.2457V52.7048ZM48.8433 31.8495H48.8441H48.8433Z" fill="#7879F1"/>
<path d="M16.1133 40.8527C15.4984 40.8527 15 40.3543 15 39.7395C15 39.1246 15.4984 38.6262 16.1133 38.6262C22.6598 38.6262 29.7875 36.2423 36.1834 31.9137C42.0675 27.9315 46.7562 22.711 49.0471 17.5908C49.2983 17.0295 49.9568 16.7781 50.518 17.0293C51.0792 17.2804 51.3306 17.9389 51.0795 18.5002C48.6239 23.9884 43.6493 29.5495 37.4314 33.7576C30.6709 38.333 23.0999 40.8527 16.1133 40.8527Z" fill="#7879F1"/>
<path d="M51.8855 25.9619C51.3939 25.9619 50.9441 25.6339 50.8109 25.1365L49.276 19.4082L43.5477 20.9431C42.9536 21.1024 42.3434 20.7499 42.1843 20.156C42.0251 19.5621 42.3775 18.9516 42.9714 18.7925L49.775 16.9695C50.3691 16.8103 50.9794 17.1628 51.1385 17.7567L52.9615 24.5602C53.1206 25.1541 52.7682 25.7646 52.1743 25.9237C52.0778 25.9495 51.9809 25.9619 51.8855 25.9619Z" fill="#7879F1"/>
</g>
<defs>
<clipPath id="clip0_2_265">
<rect width="38" height="38" fill="white" transform="translate(15 16.9313)"/>
</clipPath>
</defs>
</svg>
