<svg width="72" height="73" viewBox="0 0 72 73" fill="none" xmlns="http://www.w3.org/2000/svg">
<circle cx="35.9724" cy="36.5116" r="35.5193" fill="#BC5C56" fill-opacity="0.06"/>
<path d="M55.9413 36.0181C55.9405 35.6124 55.7298 35.236 55.3844 35.0231L51.3192 32.5171L55.3887 29.9842C55.7319 29.7707 55.9407 29.3953 55.9413 28.9911C55.942 28.5869 55.7342 28.2109 55.3916 27.9963L36.5636 16.1995C36.183 15.961 35.6997 15.961 35.3191 16.1995L16.4911 27.9963C16.1486 28.2109 15.9409 28.5869 15.9414 28.9911C15.942 29.3953 16.1509 29.7707 16.4941 29.9842L20.5356 32.4997L16.4923 35.027C16.1493 35.2413 15.9411 35.6173 15.9415 36.0218C15.9419 36.4263 16.1508 36.8019 16.4941 37.0156L20.5357 39.5311L16.4923 42.0582C16.1498 42.2722 15.9417 42.6475 15.9415 43.0513C15.9413 43.4551 16.149 43.8306 16.4912 44.045L35.3192 55.8418C35.5095 55.961 35.7255 56.0206 35.9414 56.0206C36.1573 56.0206 36.3734 55.961 36.5636 55.8418L55.3916 44.045C55.7349 43.8299 55.9428 43.4527 55.9413 43.0476C55.9398 42.6426 55.7292 42.2669 55.3844 42.0544L51.3192 39.5484L55.3887 37.0155C55.7331 36.8012 55.9422 36.4238 55.9413 36.0181ZM19.3258 28.9862L35.9414 18.5755L52.557 28.9862C52.3974 29.0856 36.4176 39.0315 35.9414 39.3279L19.3258 28.9862ZM52.5494 43.0601L35.9414 53.4659L19.3225 43.0532L22.7513 40.9101L35.3222 48.7343C35.5117 48.8523 35.7266 48.9113 35.9414 48.9113C36.1563 48.9113 36.3711 48.8523 36.5606 48.7343L49.0968 40.9317L52.5494 43.0601ZM35.9414 46.3591L19.3277 36.0187L22.7513 33.8789L35.3222 41.7031C35.5117 41.8211 35.7266 41.8801 35.9414 41.8801C36.1563 41.8801 36.3711 41.8211 36.5606 41.7031L49.0968 33.9005L52.5441 36.0255C52.4488 36.0848 36.3813 46.0853 35.9414 46.3591Z" fill="#FD695A" stroke="#FD695A" stroke-width="0.5"/>
</svg>
