<svg width="72" height="72" viewBox="0 0 72 72" fill="none" xmlns="http://www.w3.org/2000/svg">
<circle cx="35.5193" cy="35.5189" r="35.5193" fill="#68CDFD" fill-opacity="0.08"/>
<path d="M28.2572 38.9027L28.2571 38.9026C28.0761 38.7483 27.9719 38.5228 27.9719 38.2848C27.9719 38.0468 28.0766 37.8215 28.2568 37.6675L28.2572 37.6672L31.8894 34.5744L31.8895 34.5743L32.0516 34.7646L28.2572 38.9027ZM28.2572 38.9027L31.8895 41.9956C31.8895 41.9956 31.8895 41.9956 31.8895 41.9956C32.0418 42.1253 32.2291 42.1893 32.4149 42.1893C32.6439 42.1893 32.8725 42.0925 33.0332 41.9037L33.0332 41.9037M28.2572 38.9027L33.0332 41.9037M33.0332 41.9037C33.3234 41.5628 33.2826 41.0508 32.9413 40.7601C32.9413 40.7601 32.9413 40.7601 32.9413 40.7601L30.0346 38.2848L32.9411 35.8096C32.9412 35.8096 32.9412 35.8096 32.9412 35.8096L33.0332 41.9037Z" fill="#53C8FF" stroke="#53C8FF" stroke-width="0.5"/>
<path d="M41.9655 38.2848L39.0588 40.7601L39.0587 40.7602C38.718 41.0507 38.6765 41.5625 38.9672 41.9037C38.9672 41.9037 38.9673 41.9038 38.9673 41.9039L39.1576 41.7417L41.9655 38.2848ZM41.9655 38.2848L42.1582 38.1206L39.2209 35.6192C38.985 35.4184 38.9565 35.0641 39.1576 34.8279C39.3584 34.5921 39.713 34.5635 39.9485 34.7646L40.1106 34.5743L40.1107 34.5744C40.1108 34.5744 40.1108 34.5745 40.1108 34.5745L43.7429 37.6672L43.743 37.6673C43.9239 37.8215 44.0282 38.047 44.0282 38.2848C44.0282 38.5228 43.924 38.7483 43.743 38.9026L43.7429 38.9027L40.1106 41.9956M41.9655 38.2848L39.0588 35.8095L39.2207 35.6193L39.0588 35.8095C38.7177 35.5191 38.6767 35.0071 38.9672 34.6659L39.1575 34.8278L38.9672 34.6658L40.1106 41.9956M40.1106 41.9956C40.1106 41.9956 40.1106 41.9956 40.1106 41.9956L40.1106 41.9956Z" fill="#53C8FF" stroke="#53C8FF" stroke-width="0.5"/>
<path d="M34.5459 44.4916L34.5466 44.4917C34.6018 44.5032 34.6577 44.5092 34.714 44.5092C35.0896 44.5092 35.4265 44.2473 35.5071 43.8651L35.5071 43.865L37.7709 33.1169L37.7709 33.1169C37.8632 32.6782 37.5825 32.2481 37.1443 32.1557L37.1442 32.1557C36.7056 32.0634 36.2755 32.3441 36.1831 32.7823L36.1831 32.7823L33.9193 43.5304C33.827 43.9688 34.1076 44.3992 34.5459 44.4916Z" fill="#53C8FF" stroke="#53C8FF" stroke-width="0.5"/>
<path d="M22.7689 50.3648H49.2311C51.4472 50.3648 53.25 48.5623 53.25 46.3459V23.8862C53.25 21.6701 51.4472 19.8673 49.2311 19.8673H22.7689C20.5528 19.8673 18.75 21.6701 18.75 23.8862V46.3459C18.75 48.5623 20.5528 50.3648 22.7689 50.3648ZM20.3726 23.8862C20.3726 22.5652 21.4479 21.49 22.7689 21.49H49.2311C50.5521 21.49 51.6274 22.5652 51.6274 23.8862V46.3459C51.6274 47.6669 50.5521 48.7421 49.2311 48.7421H22.7689C21.4479 48.7421 20.3726 47.6669 20.3726 46.3459V23.8862Z" fill="#53C8FF" stroke="#53C8FF" stroke-width="0.5"/>
<path d="M19.5613 29.3557H52.4387C52.8869 29.3557 53.25 28.9925 53.25 28.5444C53.25 28.0966 52.8869 27.733 52.4387 27.733H19.5613C19.1131 27.733 18.75 28.0966 18.75 28.5444C18.75 28.9925 19.1131 29.3557 19.5613 29.3557Z" fill="#53C8FF" stroke="#53C8FF" stroke-width="0.5"/>
<path d="M29.8769 26.4197C28.8977 26.4197 28.1005 25.6225 28.1005 24.6433C28.1005 23.6638 28.8977 22.8669 29.8769 22.8669C30.8564 22.8669 31.6533 23.6638 31.6533 24.6433C31.6533 25.6225 30.8564 26.4197 29.8769 26.4197ZM29.8769 23.9896C29.5167 23.9896 29.2232 24.2828 29.2232 24.6433C29.2232 25.0038 29.5167 25.297 29.8769 25.297C30.2374 25.297 30.5306 25.0038 30.5306 24.6433C30.5306 24.2828 30.2374 23.9896 29.8769 23.9896Z" fill="#53C8FF"/>
<path d="M24.4191 26.4025C23.4396 26.4025 22.6428 25.6056 22.6428 24.6261C22.6428 23.6466 23.4396 22.8497 24.4191 22.8497C25.3986 22.8497 26.1955 23.6466 26.1955 24.6261C26.1955 25.6056 25.3986 26.4025 24.4191 26.4025ZM24.4191 23.9724C24.0589 23.9724 23.7654 24.2659 23.7654 24.6261C23.7654 24.9866 24.0589 25.2798 24.4191 25.2798C24.7797 25.2798 25.0729 24.9866 25.0729 24.6261C25.0729 24.2659 24.7797 23.9724 24.4191 23.9724Z" fill="#53C8FF"/>
<path d="M35.3351 26.4367C34.3559 26.4367 33.5591 25.6398 33.5591 24.6603C33.5591 23.6812 34.3559 22.8843 35.3351 22.8843C36.3146 22.8843 37.1115 23.6812 37.1115 24.6603C37.1115 25.6398 36.3146 26.4367 35.3351 26.4367ZM35.3351 24.0066C34.9749 24.0066 34.6817 24.2998 34.6817 24.6603C34.6817 25.0209 34.9749 25.3141 35.3351 25.3141C35.6956 25.3141 35.9888 25.0209 35.9888 24.6603C35.9888 24.2998 35.6956 24.0066 35.3351 24.0066Z" fill="#53C8FF"/>
</svg>
